<svg width="122" height="39" viewBox="0 0 122 39" fill="none" xmlns="http://www.w3.org/2000/svg">
<g filter="url(#filter0_d)">
<rect x="4.00061" y="14.7959" width="32" height="1.6301" rx="0.815052" fill="#E3B873"/>
<rect x="86.0006" y="14.7959" width="32" height="1.6301" rx="0.815052" fill="#E3B873"/>
<path d="M66.4261 10.1064L61.5806 8.57095C61.2169 8.45633 60.843 8.41597 60.4726 8.43026V8.41709H54.5833L44.1396 4.75146L44.1712 20.2513L47.1692 21.8342L48.9443 17.2507L51.5373 18.3465L52.2097 16.5717L53.1835 17.6002L52.275 18.5601C51.9592 18.8936 51.7783 19.3548 51.7783 19.8268C51.7783 20.7925 52.5074 21.5778 53.4143 21.6117C53.4459 22.5477 54.1583 23.3002 55.0445 23.3335C55.0761 24.2695 55.7885 25.022 56.6747 25.0553C56.7073 26.0132 57.4502 26.7833 58.3648 26.7833C58.8114 26.7833 59.2484 26.5922 59.5639 26.2587L60.4726 25.2992L60.8377 25.6848C61.1535 26.0183 61.5902 26.2094 62.037 26.2094C62.9516 26.2094 63.6948 25.4393 63.7269 24.4814C64.6131 24.448 65.3255 23.6956 65.3571 22.7596C66.2433 22.7262 66.9557 21.9737 66.9873 21.0377C67.8942 21.0033 68.6236 20.2186 68.6236 19.2528C68.6236 19.1713 68.6111 19.0908 68.6008 19.0099L69.3806 18.1862L70.0107 19.5179L73.424 17.7151L75.4866 21.8745L77.8613 20.2031V5.36885L66.4261 10.1064ZM46.6062 20.2536L45.257 19.5409L45.2296 6.34355L51.1842 8.43391L46.6062 20.2536ZM50.9321 16.8542L49.3553 16.1883L52.2179 8.79655L53.7757 9.34359L50.9321 16.8542ZM52.8651 19.8268C52.8651 19.6572 52.9295 19.4916 53.0431 19.3714L53.9985 18.3625C54.1121 18.2425 54.2692 18.1742 54.4294 18.1742C54.7654 18.1742 55.0386 18.4631 55.0386 18.8176C55.0386 18.9869 54.9739 19.1528 54.8603 19.2727L53.9052 20.2819C53.7916 20.4018 53.6345 20.4699 53.4743 20.4699C53.1383 20.4699 52.8651 20.1813 52.8651 19.8268ZM54.4952 21.5486C54.4952 21.3791 54.5597 21.2134 54.6733 21.0932L55.6287 20.0843C55.7423 19.9644 55.8994 19.896 56.0596 19.896C56.3955 19.896 56.6688 20.1849 56.6688 20.5394C56.6688 20.7087 56.6041 20.8746 56.4905 20.9946L55.5353 22.0037C55.4218 22.1237 55.2647 22.1918 55.1044 22.1918C54.7685 22.1918 54.4952 21.9031 54.4952 21.5486ZM56.1254 23.2704C56.1254 23.1009 56.1899 22.9353 56.3035 22.815L57.2589 21.8062C57.3725 21.6862 57.5296 21.6178 57.6898 21.6178C58.0257 21.6178 58.299 21.9068 58.299 22.2613C58.299 22.4305 58.2343 22.5965 58.1207 22.7164L57.1655 23.7256C57.052 23.8455 56.8949 23.9136 56.7346 23.9136C56.3987 23.9136 56.1254 23.625 56.1254 23.2704ZM59.7509 24.4382L58.7957 25.4474C58.6822 25.5673 58.5251 25.6354 58.3648 25.6354C58.0289 25.6354 57.7556 25.3468 57.7556 24.9923C57.7556 24.8227 57.8201 24.6571 57.9337 24.5369L58.8891 23.528C59.0027 23.408 59.1598 23.3397 59.32 23.3397C59.6559 23.3397 59.9292 23.6286 59.9292 23.9831C59.9292 24.1524 59.8645 24.3183 59.7509 24.4382ZM66.9276 19.896C66.7673 19.896 66.6103 19.8279 66.4967 19.708L61.9436 14.8986L61.1752 15.7102L65.7283 20.5193C65.8419 20.6395 65.9066 20.8051 65.9066 20.9747C65.9066 21.3292 65.6333 21.6178 65.2974 21.6178C65.1371 21.6178 64.9801 21.5497 64.8665 21.4298L60.3134 16.6205L59.545 17.4321L64.0981 22.2411C64.2117 22.3613 64.2764 22.527 64.2764 22.6965C64.2764 23.051 64.0031 23.3397 63.6672 23.3397C63.5069 23.3397 63.3499 23.2716 63.2363 23.1516L58.6832 18.3423L57.9148 19.1539L62.4679 23.9629C62.5815 24.0832 62.6462 24.2488 62.6462 24.4183C62.6462 24.7729 62.3729 25.0615 62.037 25.0615C61.8768 25.0615 61.7197 24.9934 61.6061 24.8735L60.9932 24.2258C61.0041 24.1457 61.016 24.0652 61.016 23.9831C61.016 23.0171 60.2866 22.2321 59.3797 22.1982C59.3482 21.2622 58.6357 20.5097 57.7495 20.4764C57.718 19.5404 57.0055 18.7879 56.1193 18.7546C56.0867 17.7967 55.344 17.0263 54.4294 17.0263C54.3522 17.0263 54.2761 17.0394 54.1997 17.0504L52.6483 15.4118L54.863 9.56498H58.074L56.0787 11.6727C55.758 12.0107 55.582 12.4608 55.582 12.9394C55.582 13.927 56.3427 14.7305 57.278 14.7305C57.7246 14.7305 58.1616 14.5394 58.4771 14.2059L59.9168 12.685C60.2113 12.375 60.73 12.363 61.0367 12.6597L62.3071 13.8897C62.7293 14.2983 63.1984 14.6383 63.7004 14.9045L67.3585 18.7974C67.4721 18.9177 67.5368 19.0833 67.5368 19.2528C67.5368 19.6073 67.2635 19.896 66.9276 19.896ZM68.0802 17.9365L65.8466 15.5595C66.0462 15.5794 66.2473 15.5914 66.45 15.5914V14.4435C65.1849 14.4435 63.9742 13.9461 63.0418 13.0431L61.7712 11.8137C61.054 11.1181 59.8374 11.1459 59.1489 11.8739L57.7095 13.3946C57.5954 13.5139 57.4383 13.5826 57.278 13.5826C56.9421 13.5826 56.6688 13.2939 56.6688 12.9394C56.6688 12.7671 56.7317 12.6059 56.8469 12.484L58.9183 10.2964C59.527 9.65354 60.441 9.40888 61.2681 9.67064L66.0685 11.1915L68.8674 17.105L68.0802 17.9365ZM70.4966 17.978L67.2019 11.0178L69.6082 10.0207L72.9196 16.6981L70.4966 17.978ZM76.7746 19.5891L75.8886 20.213L70.626 9.59945L76.7746 7.05229V19.5891Z" fill="#E3B873"/>
<ellipse cx="63.6667" cy="1.80586" rx="0.485591" ry="0.512889" fill="#E3B873"/>
<ellipse cx="51.4099" cy="26.0239" rx="0.485591" ry="0.512889" fill="#E3B873"/>
<ellipse cx="53.468" cy="27.8073" rx="0.485591" ry="0.512889" fill="#E3B873"/>
<ellipse cx="55.8166" cy="29.1159" rx="0.485591" ry="0.512889" fill="#E3B873"/>
<ellipse cx="58.3655" cy="29.9528" rx="0.485591" ry="0.512889" fill="#E3B873"/>
<ellipse cx="66.2141" cy="2.62226" rx="0.485591" ry="0.512889" fill="#E3B873"/>
<ellipse cx="68.5632" cy="3.94722" rx="0.485591" ry="0.512889" fill="#E3B873"/>
<path d="M70.8305 3.20581V6.16501H67.9971" stroke="#E3B873" stroke-linecap="round" stroke-linejoin="round"/>
<path d="M49.0104 25.6895L49.0104 23.2952L51.2744 23.2952" stroke="#E3B873" stroke-linecap="round" stroke-linejoin="round"/>
<path d="M51.8008 5.30018C53.3359 3.88927 54.3124 3.24016 56.1519 2.48153C58.1033 1.67676 59.4237 1.48778 61.5441 1.48779" stroke="#E3B873" stroke-linecap="round"/>
<path d="M72.4046 23.7719C71.2633 25.6522 69.1376 27.4881 67.4089 28.4962C65.575 29.5656 63.6102 30.1683 60.9931 30.3123" stroke="#E3B873" stroke-linecap="round"/>
</g>
<defs>
<filter id="filter0_d" x="0.000610352" y="0.987793" width="122" height="37.8255" filterUnits="userSpaceOnUse" color-interpolation-filters="sRGB">
<feFlood flood-opacity="0" result="BackgroundImageFix"/>
<feColorMatrix in="SourceAlpha" type="matrix" values="0 0 0 0 0 0 0 0 0 0 0 0 0 0 0 0 0 0 127 0"/>
<feOffset dy="4"/>
<feGaussianBlur stdDeviation="2"/>
<feColorMatrix type="matrix" values="0 0 0 0 0 0 0 0 0 0 0 0 0 0 0 0 0 0 0.25 0"/>
<feBlend mode="normal" in2="BackgroundImageFix" result="effect1_dropShadow"/>
<feBlend mode="normal" in="SourceGraphic" in2="effect1_dropShadow" result="shape"/>
</filter>
</defs>
</svg>
