<svg width="33" height="34" viewBox="0 0 33 34" fill="none" xmlns="http://www.w3.org/2000/svg">
<path fill-rule="evenodd" clip-rule="evenodd" d="M3.25023 0.949238C3.25023 0.72648 3.42846 0.545898 3.64833 0.545898H32.3115C32.5313 0.545898 32.7096 0.72648 32.7096 0.949238V30.1241C32.7096 30.3469 32.5313 30.5275 32.3115 30.5275C32.0916 30.5275 31.9134 30.3469 31.9134 30.1241V1.35258H3.64833C3.42846 1.35258 3.25023 1.172 3.25023 0.949238Z" fill="white" stroke="white" stroke-width="0.5"/>
<path d="M3.66802 30.7061L3.79302 30.7061L3.79302 30.5811L3.79302 5.48182L5.41651 7.19658C5.62006 7.41157 5.95306 7.41157 6.15661 7.19658C6.35649 6.98546 6.35649 6.64586 6.15661 6.43474L3.64311 3.77995C3.43956 3.56495 3.10656 3.56495 2.90302 3.77995L0.389517 6.43474C0.189638 6.64586 0.189638 6.98546 0.389517 7.19658C0.593067 7.41157 0.926065 7.41157 1.12961 7.19658L2.75311 5.48182L2.75311 30.5811L2.75311 30.7061L2.87811 30.7061L3.66802 30.7061Z" fill="white" stroke="white" stroke-width="0.25"/>
<path d="M25.1237 33.6169L25.2143 33.5308L25.1237 33.6169C25.3281 33.8316 25.662 33.8316 25.8663 33.6169L28.3929 30.9621C28.5939 30.751 28.5939 30.411 28.3929 30.1998L25.8663 27.545C25.662 27.3304 25.3281 27.3304 25.1237 27.545L25.1237 27.545C24.9228 27.7562 24.9228 28.0962 25.1237 28.3073L26.7716 30.0388L2.87712 30.0388H2.75212V30.1638V30.9982V31.1232H2.87712L26.7716 31.1232L25.1237 32.8546C24.9228 33.0658 24.9228 33.4058 25.1237 33.6169Z" fill="white" stroke="white" stroke-width="0.25"/>
<path fill-rule="evenodd" clip-rule="evenodd" d="M14.1624 0.668082C14.3167 0.830994 14.3167 1.09513 14.1624 1.25804L9.42294 6.26397C9.2687 6.42688 9.01862 6.42688 8.86438 6.26397C8.71014 6.10106 8.71014 5.83693 8.86438 5.67401L13.6039 0.668082C13.7581 0.505171 14.0082 0.505171 14.1624 0.668082Z" fill="white" stroke="white" stroke-width="0.5" stroke-linecap="round" stroke-linejoin="round"/>
<path fill-rule="evenodd" clip-rule="evenodd" d="M32.4622 20.5526C32.6164 20.7155 32.6164 20.9796 32.4622 21.1426L28.1177 25.7313C27.9634 25.8942 27.7133 25.8942 27.5591 25.7313C27.4049 25.5684 27.4049 25.3043 27.5591 25.1414L31.9036 20.5526C32.0579 20.3897 32.308 20.3897 32.4622 20.5526Z" fill="white" stroke="white" stroke-width="0.5" stroke-linecap="round" stroke-linejoin="round"/>
<path fill-rule="evenodd" clip-rule="evenodd" d="M20.085 0.666209C20.2402 0.82808 20.2418 1.09221 20.0885 1.25615L9.81964 12.2414C9.66638 12.4053 9.41632 12.407 9.2611 12.2451C9.10588 12.0833 9.10428 11.8191 9.25754 11.6552L19.5264 0.669967C19.6797 0.506021 19.9298 0.504339 20.085 0.666209Z" fill="white" stroke="white" stroke-width="0.5" stroke-linecap="round" stroke-linejoin="round"/>
<path fill-rule="evenodd" clip-rule="evenodd" d="M32.5938 13.5995C32.748 13.7624 32.748 14.0265 32.5938 14.1894L22.5882 24.7575C22.434 24.9204 22.1839 24.9204 22.0296 24.7575C21.8754 24.5946 21.8754 24.3305 22.0296 24.1676L32.0352 13.5995C32.1895 13.4366 32.4396 13.4366 32.5938 13.5995Z" fill="white" stroke="white" stroke-width="0.5" stroke-linecap="round" stroke-linejoin="round"/>
<path fill-rule="evenodd" clip-rule="evenodd" d="M26.4084 0.808898C26.5614 0.973118 26.5594 1.23724 26.4039 1.39883L9.94729 18.5024C9.79181 18.664 9.54174 18.6619 9.38875 18.4977C9.23576 18.3335 9.23778 18.0693 9.39326 17.9077L25.8498 0.804141C26.0053 0.642548 26.2554 0.644678 26.4084 0.808898Z" fill="white" stroke="white" stroke-width="0.5" stroke-linecap="round" stroke-linejoin="round"/>
<path fill-rule="evenodd" clip-rule="evenodd" d="M32.5939 7.06432C32.7481 7.22723 32.7481 7.49137 32.5939 7.65428L16.0056 25.175C15.8514 25.3379 15.6013 25.3379 15.4471 25.175C15.2928 25.0121 15.2928 24.748 15.4471 24.5851L32.0353 7.06432C32.1896 6.90141 32.4396 6.90141 32.5939 7.06432Z" fill="white" stroke="white" stroke-width="0.5" stroke-linecap="round" stroke-linejoin="round"/>
<path fill-rule="evenodd" clip-rule="evenodd" d="M32.3306 0.80651C32.4848 0.969421 32.4848 1.23355 32.3306 1.39646L9.68631 25.3137C9.53206 25.4766 9.28199 25.4766 9.12775 25.3137C8.97351 25.1508 8.97351 24.8866 9.12775 24.7237L31.772 0.80651C31.9263 0.643598 32.1763 0.643598 32.3306 0.80651Z" fill="white" stroke="white" stroke-width="0.5" stroke-linecap="round" stroke-linejoin="round"/>
</svg>
