<svg width="34" height="34" viewBox="0 0 34 34" fill="none" xmlns="http://www.w3.org/2000/svg">
<path d="M24.5967 2.86819C24.334 1.54506 23.1934 0.545898 21.829 0.545898C21.5172 0.545898 21.2641 0.805414 21.2641 1.12647C21.2641 1.44753 21.5172 1.70704 21.829 1.70704C22.7635 1.70704 23.5239 2.48849 23.5239 3.44876C23.5239 4.40903 22.7635 5.19047 21.829 5.19047C21.5172 5.19047 21.2641 5.44999 21.2641 5.77105C21.2641 6.0921 21.5172 6.35162 21.829 6.35162C23.1928 6.35162 24.334 5.35245 24.5967 4.02933H31.998V9.25448H1.49118V4.02933H9.40035H11.0952C11.407 4.02933 11.6601 3.76982 11.6601 3.44876C11.6601 3.1277 11.407 2.86819 11.0952 2.86819H10.0692C10.3031 2.19356 10.9246 1.70704 11.6601 1.70704C12.5945 1.70704 13.3549 2.48849 13.3549 3.44876C13.3549 4.40903 12.5945 5.19047 11.6601 5.19047C11.3483 5.19047 11.0952 5.44999 11.0952 5.77105C11.0952 6.0921 11.3483 6.35162 11.6601 6.35162C13.2177 6.35162 14.4848 5.0494 14.4848 3.44876C14.4848 1.84812 13.2177 0.545898 11.6601 0.545898C10.2963 0.545898 9.15516 1.54506 8.89247 2.86819H0.361298V10.4156V33.6385H33.1279V10.4156V2.86819H24.5967ZM31.998 32.4774H1.49118V10.4156H31.998V32.4774Z" fill="white"/>
<path d="M15.0497 1.70704C15.9842 1.70704 16.7446 2.48849 16.7446 3.44876C16.7446 4.40903 15.9842 5.19047 15.0497 5.19047C14.7379 5.19047 14.4848 5.44999 14.4848 5.77105C14.4848 6.0921 14.7379 6.35162 15.0497 6.35162C16.6073 6.35162 17.8744 5.0494 17.8744 3.44876C17.8744 1.84812 16.6073 0.545898 15.0497 0.545898C14.7379 0.545898 14.4848 0.805414 14.4848 1.12647C14.4848 1.44753 14.7379 1.70704 15.0497 1.70704Z" fill="white"/>
<path d="M18.4394 1.70704C19.3738 1.70704 20.1342 2.48849 20.1342 3.44876C20.1342 4.40903 19.3738 5.19047 18.4394 5.19047C18.1275 5.19047 17.8745 5.44999 17.8745 5.77105C17.8745 6.0921 18.1275 6.35162 18.4394 6.35162C19.9969 6.35162 21.2641 5.0494 21.2641 3.44876C21.2641 1.84812 19.9969 0.545898 18.4394 0.545898C18.1275 0.545898 17.8745 0.805414 17.8745 1.12647C17.8745 1.44753 18.1275 1.70704 18.4394 1.70704Z" fill="white"/>
<path d="M5.44576 15.0601H17.8745C18.1863 15.0601 18.4394 14.8006 18.4394 14.4795C18.4394 14.1584 18.1863 13.8989 17.8745 13.8989H5.44576C5.13391 13.8989 4.88082 14.1584 4.88082 14.4795C4.88082 14.8006 5.13391 15.0601 5.44576 15.0601Z" fill="white"/>
<path d="M28.0434 23.1882H19.5693C19.2574 23.1882 19.0043 23.4477 19.0043 23.7688C19.0043 24.0899 19.2574 24.3494 19.5693 24.3494H28.0434C28.3552 24.3494 28.6083 24.0899 28.6083 23.7688C28.6083 23.4477 28.3552 23.1882 28.0434 23.1882Z" fill="white"/>
<path d="M5.44576 19.7048H11.0952C11.407 19.7048 11.6601 19.4453 11.6601 19.1243C11.6601 18.8032 11.407 18.5437 11.0952 18.5437H5.44576C5.13391 18.5437 4.88082 18.8032 4.88082 19.1243C4.88082 19.4453 5.13391 19.7048 5.44576 19.7048Z" fill="white"/>
<path d="M28.0434 27.8328H22.394C22.0821 27.8328 21.829 28.0923 21.829 28.4133C21.829 28.7344 22.0821 28.9939 22.394 28.9939H28.0434C28.3552 28.9939 28.6083 28.7344 28.6083 28.4133C28.6083 28.0923 28.3552 27.8328 28.0434 27.8328Z" fill="white"/>
<path d="M16.1796 19.1243C16.1796 19.4453 16.4327 19.7048 16.7446 19.7048H25.2187C25.5305 19.7048 25.7836 19.4453 25.7836 19.1243C25.7836 18.8032 25.5305 18.5437 25.2187 18.5437H16.7446C16.4327 18.5437 16.1796 18.8032 16.1796 19.1243Z" fill="white"/>
<path d="M14.321 19.5365C14.4227 19.4262 14.4848 19.2753 14.4848 19.1243C14.4848 18.9728 14.4227 18.8219 14.321 18.7121C14.1119 18.4973 13.7278 18.4973 13.5188 18.7121C13.4171 18.8219 13.3549 18.9728 13.3549 19.1243C13.3549 19.2753 13.4171 19.4262 13.5188 19.5365C13.6261 19.6463 13.773 19.7049 13.9199 19.7049C14.0668 19.7049 14.2136 19.6463 14.321 19.5365Z" fill="white"/>
<path d="M7.70552 23.7688C7.70552 24.0899 7.95861 24.3494 8.27046 24.3494H16.7446C17.0564 24.3494 17.3095 24.0899 17.3095 23.7688C17.3095 23.4477 17.0564 23.1882 16.7446 23.1882H8.27046C7.95861 23.1882 7.70552 23.4477 7.70552 23.7688Z" fill="white"/>
<path d="M5.44576 24.3492C5.59264 24.3492 5.73953 24.2854 5.84687 24.1809C5.94856 24.0705 6.0107 23.9196 6.0107 23.7686C6.0107 23.6171 5.94856 23.4662 5.84687 23.3622C5.63784 23.1416 5.25368 23.1416 5.04465 23.3564C4.94296 23.4662 4.88082 23.6171 4.88082 23.7686C4.88082 23.9196 4.94296 24.0705 5.04465 24.1809C5.15199 24.2854 5.29323 24.3492 5.44576 24.3492Z" fill="white"/>
<path d="M28.0434 19.7049C28.1903 19.7049 28.3371 19.6463 28.4445 19.5365C28.5518 19.4262 28.6083 19.2753 28.6083 19.1243C28.6083 18.9728 28.5518 18.8219 28.4445 18.7121C28.2298 18.4973 27.8513 18.4973 27.6423 18.7121C27.5406 18.8219 27.4784 18.9728 27.4784 19.1243C27.4784 19.2753 27.5406 19.4262 27.6423 19.5365C27.7496 19.6463 27.8965 19.7049 28.0434 19.7049Z" fill="white"/>
<path d="M19.5693 27.8328H5.44576C5.13391 27.8328 4.88082 28.0923 4.88082 28.4133C4.88082 28.7344 5.13391 28.9939 5.44576 28.9939H19.5693C19.8811 28.9939 20.1342 28.7344 20.1342 28.4133C20.1342 28.0923 19.8811 27.8328 19.5693 27.8328Z" fill="white"/>
</svg>
